<?xml version="1.0" encoding="UTF-8"?>
<!-- Generator: visioncortex VTracer 0.6.12 -->
<svg version="1.1" xmlns="http://www.w3.org/2000/svg" width="718" height="837">
<path d="M0,0 L297,0 L312,2 L328,8 L340,16 L349,24 L359,38 L365,52 L368,66 L368,325 L402,325 L413,328 L425,334 L435,343 L442,353 L447,365 L449,374 L449,624 L453,640 L459,651 L465,658 L476,665 L486,669 L491,670 L509,670 L523,665 L533,658 L541,649 L547,637 L549,629 L549,400 L507,400 L495,397 L486,392 L481,388 L478,385 L472,370 L471,364 L471,250 L475,237 L491,206 L497,195 L496,191 L491,188 L484,180 L473,171 L460,159 L449,150 L438,140 L432,135 L428,128 L428,117 L431,111 L436,105 L442,102 L451,101 L461,105 L473,116 L484,125 L496,136 L504,143 L517,154 L527,163 L535,170 L548,181 L558,190 L569,199 L582,211 L593,220 L599,228 L603,237 L604,242 L604,385 L601,393 L595,398 L590,399 L590,632 L586,651 L578,668 L569,680 L563,687 L552,696 L538,704 L525,709 L511,712 L485,712 L470,708 L456,702 L444,694 L439,690 L439,688 L435,686 L425,674 L417,660 L411,643 L409,631 L408,378 L405,371 L401,368 L398,367 L368,366 L368,742 L360,743 L-69,743 L-70,742 L-70,66 L-66,50 L-58,34 L-50,24 L-43,17 L-29,8 L-16,3 Z " fill="#FD7805" transform="translate(114,0)"/>
<path d="M0,0 L276,0 L283,4 L288,9 L292,16 L292,203 L288,211 L282,217 L276,218 L276,220 L-1,220 L-10,214 L-15,208 L-17,203 L-17,19 L-14,10 L-6,2 Z " fill="#FDFDFD" transform="translate(125,76)"/>
<path d="M0,0 L483,0 L492,3 L500,10 L504,20 L504,57 L500,67 L493,73 L485,76 L-2,76 L-11,72 L-16,68 L-20,61 L-21,57 L-21,20 L-17,10 L-9,3 Z " fill="#FD7A09" transform="translate(21,761)"/>
<path d="M0,0 L4,2 L18,19 L29,34 L41,51 L55,72 L63,85 L75,106 L87,131 L92,144 L96,158 L97,165 L97,190 L93,207 L85,223 L78,234 L67,246 L56,255 L42,263 L30,268 L18,271 L-12,271 L-22,269 L-38,264 L-53,255 L-63,247 L-73,237 L-80,227 L-88,211 L-91,203 L-94,190 L-94,165 L-90,147 L-84,131 L-75,111 L-62,88 L-49,67 L-38,51 L-29,38 L-17,22 L-6,8 Z " fill="#FDFDFC" transform="translate(263,393)"/>
<path d="M0,0 L9,0 L23,12 L35,23 L40,28 L43,33 L45,38 L45,80 L41,85 L39,86 L3,86 L-2,83 L-4,79 L-4,5 Z " fill="#FDFBF9" transform="translate(620,280)"/>
<path d="M0,0 Z " fill="#FEF5EC" transform="translate(705,402)"/>
<path d="M0,0 Z " fill="#FDF5ED" transform="translate(662,401)"/>
<path d="M0,0 Z " fill="#FDF4ED" transform="translate(705,400)"/>
<path d="M0,0 Z " fill="#FEF4E9" transform="translate(483,367)"/>
<path d="M0,0 Z " fill="#FCF5EE" transform="translate(493,323)"/>
</svg>
