<?xml version="1.0" encoding="UTF-8"?>
<!-- Generator: visioncortex VTracer 0.6.12 -->
<svg version="1.1" xmlns="http://www.w3.org/2000/svg" width="735" height="858">
<path d="M0,0 L326,1 L336,3 L350,9 L361,17 L370,26 L379,40 L384,55 L385,59 L386,334 L404,334 L419,337 L431,342 L444,351 L451,358 L459,370 L465,385 L466,394 L467,650 L471,666 L478,677 L486,685 L494,690 L506,694 L513,695 L522,695 L535,692 L547,686 L555,679 L562,668 L566,658 L567,653 L568,608 L568,414 L523,414 L507,410 L497,404 L491,399 L483,388 L478,374 L478,262 L482,250 L498,216 L508,194 L507,191 L496,182 L485,172 L474,163 L462,152 L456,149 L455,146 L447,139 L443,133 L442,130 L442,120 L446,112 L451,107 L456,104 L460,103 L468,103 L478,107 L490,118 L501,127 L512,137 L523,146 L534,156 L545,165 L557,176 L568,185 L581,197 L592,206 L604,217 L615,226 L621,234 L625,245 L625,403 L621,409 L616,413 L610,414 L610,655 L605,676 L597,693 L589,704 L584,710 L576,717 L563,726 L551,732 L538,736 L526,738 L510,738 L493,735 L477,729 L465,722 L456,715 L446,705 L439,695 L431,680 L427,668 L425,658 L424,536 L424,399 L420,388 L415,382 L407,378 L385,377 L385,763 L-66,763 L-66,60 L-63,48 L-58,37 L-51,26 L-42,17 L-32,10 L-22,5 L-7,1 Z " fill="#0372F3" transform="translate(110,0)"/>
<path d="M0,0 L285,0 L293,4 L300,12 L302,17 L302,206 L298,216 L290,223 L285,225 L-1,225 L-10,219 L-15,213 L-17,206 L-17,19 L-13,9 L-5,2 Z " fill="#FDFDFD" transform="translate(127,75)"/>
<path d="M0,0 L417,0 L425,3 L431,8 L435,17 L435,60 L432,68 L424,75 L418,77 L-86,77 L-94,74 L-101,66 L-103,60 L-103,18 L-100,10 L-95,4 L-89,1 Z " fill="#0372F3" transform="translate(103,781)"/>
<path d="M0,0 L2,0 L10,16 L18,30 L24,41 L32,53 L43,69 L56,88 L65,103 L70,114 L73,125 L74,133 L74,144 L72,157 L67,171 L60,182 L51,192 L44,198 L29,207 L14,211 L12,212 L-9,212 L-24,208 L-33,204 L-43,198 L-53,189 L-60,181 L-69,164 L-72,153 L-73,146 L-73,131 L-70,117 L-63,101 L-53,85 L-37,62 L-25,44 L-17,31 L-7,13 Z " fill="#FCFCFD" transform="translate(270,504)"/>
<path d="M0,0 L14,0 L23,3 L32,9 L37,16 L40,23 L40,64 L37,72 L32,80 L24,86 L14,89 L-2,89 L-12,85 L-19,79 L-23,71 L-25,65 L-25,24 L-21,14 L-14,6 L-4,1 Z " fill="#F7FAFD" transform="translate(381,379)"/>
<path d="M0,0 L14,0 L24,3 L32,9 L37,16 L40,25 L40,64 L36,75 L29,83 L19,88 L15,89 L0,89 L-10,86 L-20,77 L-24,68 L-25,64 L-25,24 L-22,15 L-14,6 L-7,2 Z " fill="#F9FBFD" transform="translate(304,379)"/>
<path d="M0,0 L19,0 L28,4 L36,10 L40,17 L41,27 L20,27 L18,22 L15,20 L0,20 L-3,23 L-3,29 L3,33 L19,37 L32,42 L40,49 L43,57 L43,67 L39,77 L34,83 L26,87 L21,89 L-5,89 L-17,83 L-23,76 L-26,70 L-26,61 L-5,61 L-2,68 L1,70 L16,70 L20,66 L20,60 L15,57 L10,55 L-6,51 L-14,48 L-23,40 L-26,32 L-26,23 L-23,14 L-17,7 L-8,2 Z " fill="#F6F9FD" transform="translate(144,379)"/>
<path d="M0,0 L9,0 L16,3 L27,13 L38,22 L46,29 L50,35 L52,43 L52,88 L8,88 L2,83 L0,80 Z " fill="#F9FBFD" transform="translate(624,288)"/>
<path d="M0,0 L56,0 L56,19 L18,19 L19,32 L26,30 L36,30 L44,32 L52,37 L58,44 L60,49 L60,67 L55,77 L47,84 L38,88 L21,88 L12,86 L3,81 L-3,73 L-4,66 L11,62 L15,62 L19,67 L24,69 L31,69 L37,66 L39,63 L39,54 L34,49 L31,48 L23,48 L16,52 L7,51 L-2,49 L-1,10 Z " fill="#F5F9FD" transform="translate(207,380)"/>
<path d="M0,0 L11,0 L16,5 L18,10 L18,42 L14,49 L8,52 L2,52 L-4,48 L-7,41 L-7,8 L-3,2 Z " fill="#0576F4" transform="translate(306,398)"/>
<path d="M0,0 L10,0 L16,5 L18,11 L18,41 L14,49 L8,52 L-1,51 L-6,45 L-7,43 L-7,8 L-4,3 Z " fill="#0774F3" transform="translate(383,398)"/>
<path d="M0,0 L417,0 L421,2 L-88,3 L-93,6 L-100,13 L-100,10 L-95,4 L-89,1 Z " fill="#6FA9F4" transform="translate(103,781)"/>
<path d="M0,0 L2,0 L1,3 Z " fill="#EBF3FE" transform="translate(721,415)"/>
<path d="M0,0 Z " fill="#F0F5FB" transform="translate(594,391)"/>
</svg>
