<?xml version="1.0" encoding="UTF-8"?>
<!-- Generator: visioncortex VTracer 0.6.12 -->
<svg version="1.1" xmlns="http://www.w3.org/2000/svg" width="730" height="853">
<path d="M0,0 L333,0 L346,4 L358,10 L368,18 L378,29 L385,43 L389,58 L389,331 L417,331 L432,335 L445,342 L455,351 L463,361 L470,376 L472,385 L473,639 L476,651 L481,661 L490,671 L499,677 L510,681 L515,682 L529,682 L541,679 L552,673 L558,668 L565,658 L570,647 L572,638 L573,407 L535,407 L522,404 L514,400 L504,391 L500,386 L495,373 L493,362 L493,257 L496,245 L509,216 L519,193 L517,189 L511,186 L505,179 L492,168 L479,157 L466,146 L458,139 L453,133 L451,128 L451,118 L455,110 L461,105 L469,102 L478,103 L486,107 L497,117 L508,126 L525,140 L538,151 L549,160 L563,172 L575,183 L583,190 L598,204 L606,211 L620,224 L625,233 L628,242 L629,247 L629,395 L626,402 L621,406 L614,407 L614,638 L611,656 L606,671 L597,687 L587,699 L573,710 L558,718 L547,722 L530,725 L515,725 L498,722 L484,717 L468,708 L453,694 L443,679 L436,664 L432,649 L431,639 L430,389 L426,381 L420,376 L413,374 L389,373 L389,758 L-56,758 L-57,757 L-57,63 L-55,50 L-50,37 L-43,26 L-35,17 L-24,9 L-14,4 L-6,1 Z " fill="#D69F05" transform="translate(101,0)"/>
<path d="M0,0 L278,0 L287,4 L293,9 L297,16 L298,21 L298,206 L294,216 L286,223 L282,225 L-2,225 L-9,222 L-14,218 L-19,209 L-19,18 L-15,10 L-6,2 Z " fill="#FDFDFC" transform="translate(128,74)"/>
<path d="M0,0 L9,0 L14,4 L24,20 L32,32 L48,57 L60,77 L68,90 L80,111 L95,140 L103,158 L110,179 L114,194 L116,211 L116,221 L114,239 L109,255 L102,271 L92,286 L80,299 L66,310 L52,318 L40,323 L26,327 L19,328 L-11,328 L-28,324 L-44,317 L-58,309 L-72,297 L-82,286 L-91,272 L-97,260 L-103,242 L-105,231 L-105,202 L-101,182 L-93,158 L-82,134 L-70,110 L-56,86 L-44,66 L-32,47 L-20,28 L-8,10 L-3,2 Z " fill="#FDFDFC" transform="translate(263,369)"/>
<path d="M0,0 L500,0 L509,4 L515,12 L516,15 L516,61 L512,69 L504,74 L501,75 L-2,75 L-10,71 L-15,65 L-17,59 L-17,16 L-14,9 L-9,4 L-4,1 Z " fill="#D6A109" transform="translate(17,778)"/>
<path d="M0,0 L6,0 L8,2 L13,24 L22,41 L26,45 L26,47 L30,49 L41,56 L57,62 L71,65 L72,72 L68,76 L54,78 L39,84 L29,91 L22,99 L14,113 L9,132 L7,138 L5,140 L0,140 L-3,136 L-6,121 L-12,106 L-19,96 L-26,89 L-36,83 L-46,79 L-58,76 L-65,75 L-67,72 L-67,67 L-64,64 L-48,61 L-39,57 L-28,51 L-18,42 L-13,35 L-8,24 L-4,10 L-3,3 Z " fill="#D59F05" transform="translate(265,506)"/>
<path d="M0,0 L7,1 L26,14 L38,23 L44,30 L45,32 L45,89 L7,89 L0,83 L-2,80 L-2,2 Z " fill="#FDFCFA" transform="translate(629,283)"/>
<path d="M0,0 L3,1 Z " fill="#FCF7EB" transform="translate(491,374)"/>
<path d="M0,0 Z " fill="#FAF7EF" transform="translate(608,182)"/>
</svg>
