<?xml version="1.0" encoding="UTF-8"?>
<!-- Generator: visioncortex VTracer 0.6.12 -->
<svg version="1.1" xmlns="http://www.w3.org/2000/svg" width="734" height="855">
<path d="M0,0 L330,0 L346,4 L360,11 L373,23 L381,33 L387,46 L390,57 L391,65 L392,330 L405,330 L422,333 L434,338 L445,345 L456,356 L464,369 L469,383 L470,389 L471,643 L474,659 L480,671 L489,681 L498,687 L510,691 L516,692 L528,692 L540,689 L551,683 L559,676 L567,663 L570,654 L571,649 L572,412 L524,412 L511,408 L501,402 L493,394 L487,384 L484,374 L484,255 L488,243 L513,193 L511,189 L500,180 L487,168 L476,159 L464,148 L456,141 L451,137 L447,130 L446,126 L446,118 L450,108 L457,102 L466,99 L477,100 L485,104 L492,111 L503,120 L517,133 L525,140 L539,152 L550,162 L561,171 L574,183 L582,190 L592,199 L603,208 L617,221 L625,228 L630,238 L631,242 L631,401 L628,407 L623,411 L615,413 L614,652 L610,670 L605,683 L598,695 L590,705 L580,715 L565,725 L551,731 L535,735 L509,735 L492,731 L476,724 L464,716 L455,708 L444,694 L438,683 L433,671 L429,654 L428,647 L428,397 L425,387 L420,380 L408,374 L391,373 L391,760 L390,761 L-60,761 L-60,60 L-56,45 L-49,31 L-38,18 L-27,10 L-13,3 Z " fill="#5D24CF" transform="translate(103,0)"/>
<path d="M0,0 L286,0 L294,4 L300,11 L302,15 L302,207 L297,216 L289,221 L286,222 L0,222 L-8,218 L-14,211 L-16,204 L-16,19 L-13,10 L-8,4 Z " fill="#FDFCFD" transform="translate(125,75)"/>
<path d="M0,0 L505,0 L513,4 L519,12 L520,15 L520,61 L515,69 L510,73 L505,75 L-1,75 L-9,71 L-14,65 L-16,60 L-16,16 L-11,6 L-3,1 Z " fill="#5D25CF" transform="translate(16,780)"/>
<path d="M0,0 L5,1 L18,25 L31,47 L53,80 L64,98 L70,111 L74,130 L74,143 L71,159 L65,174 L56,187 L47,196 L37,203 L23,209 L8,212 L-8,212 L-24,208 L-37,201 L-48,192 L-56,183 L-64,169 L-68,159 L-71,143 L-71,128 L-68,114 L-61,98 L-51,82 L-43,70 L-29,49 L-13,22 L-4,6 Z " fill="#FCFCFD" transform="translate(267,500)"/>
<path d="M0,0 L16,0 L29,5 L37,12 L42,19 L46,32 L47,43 L47,74 L44,87 L37,101 L30,107 L19,111 L14,112 L-2,112 L-12,109 L-21,102 L-27,94 L-30,85 L-32,73 L-32,37 L-28,21 L-23,12 L-16,6 L-11,3 L-6,1 Z " fill="#FAF9FC" transform="translate(354,369)"/>
<path d="M0,0 L17,0 L33,4 L42,10 L49,18 L52,26 L52,36 L25,36 L23,29 L18,25 L2,25 L-3,29 L-3,35 L2,39 L23,45 L33,48 L44,54 L51,62 L54,70 L54,83 L52,91 L48,99 L40,106 L30,110 L22,112 L-2,112 L-15,108 L-25,101 L-32,91 L-34,83 L-34,75 L-6,75 L-3,84 L4,88 L18,88 L24,86 L25,76 L20,72 L11,69 L-8,64 L-20,58 L-27,52 L-30,47 L-32,41 L-32,27 L-29,18 L-20,8 L-14,4 Z " fill="#FAF9FC" transform="translate(173,369)"/>
<path d="M0,0 L4,2 L15,11 L26,21 L37,30 L45,37 L46,39 L46,91 L42,95 L39,96 L7,96 L1,92 L-1,89 L-1,1 Z " fill="#FBFAFD" transform="translate(625,279)"/>
<path d="M0,0 L25,0 L25,109 L-3,109 L-3,32 L-22,40 L-24,40 L-24,15 L-10,7 Z " fill="#F7F5FB" transform="translate(270,371)"/>
<path d="M0,0 L10,0 L15,5 L18,13 L18,48 L16,58 L11,64 L2,65 L-3,62 L-6,56 L-7,52 L-7,12 L-4,4 Z " fill="#5E25CD" transform="translate(356,393)"/>
<path d="M0,0 Z " fill="#F1ECFB" transform="translate(495,374)"/>
<path d="M0,0 Z " fill="#F4EFFB" transform="translate(653,682)"/>
<path d="M0,0 Z " fill="#F4F3F8" transform="translate(673,413)"/>
<path d="M0,0 Z " fill="#F4F1F9" transform="translate(591,388)"/>
<path d="M0,0 Z " fill="#F4F0FA" transform="translate(512,375)"/>
<path d="M0,0 Z " fill="#F1EEFA" transform="translate(495,328)"/>
<path d="M0,0 Z " fill="#F4F0FB" transform="translate(603,181)"/>
<path d="M0,0 Z " fill="#F3EFFB" transform="translate(601,179)"/>
</svg>
