<?xml version="1.0" encoding="UTF-8"?>
<!-- Generator: visioncortex VTracer 0.6.12 -->
<svg version="1.1" xmlns="http://www.w3.org/2000/svg" width="554" height="809">
<path d="M0,0 L330,0 L338,4 L345,11 L349,22 L349,37 L346,46 L337,56 L330,59 L324,59 L324,181 L333,183 L350,190 L365,198 L379,208 L392,219 L403,230 L414,244 L423,259 L431,276 L437,294 L441,315 L442,325 L442,579 L441,580 L-111,580 L-112,578 L-112,326 L-110,308 L-105,287 L-97,267 L-89,252 L-77,235 L-65,222 L-57,214 L-44,204 L-28,194 L-9,185 L3,181 L6,181 L6,59 L-1,59 L-11,53 L-17,44 L-19,37 L-19,22 L-15,11 L-10,5 Z " fill="#FD6503" transform="translate(112,0)"/>
<path d="M0,0 L552,0 L553,4 L551,26 L546,45 L540,60 L532,75 L520,91 L512,100 L504,107 L491,117 L474,127 L460,133 L457,133 L457,135 L463,136 L471,142 L476,150 L478,160 L477,181 L473,189 L468,194 L460,199 L455,200 L96,200 L87,197 L80,191 L75,181 L74,157 L77,148 L83,140 L91,135 L94,135 L94,133 L85,130 L69,122 L54,112 L44,103 L36,96 L23,80 L12,61 L6,46 L2,32 L0,19 Z " fill="#FD6604" transform="translate(1,609)"/>
<path d="M0,0 L4,1 L16,12 L21,17 L36,32 L45,43 L57,58 L70,77 L80,93 L89,110 L94,122 L98,131 L105,156 L106,164 L106,189 L105,201 L101,217 L96,229 L88,243 L76,257 L62,268 L47,276 L40,279 L37,278 L46,270 L53,260 L58,249 L61,240 L62,233 L62,221 L58,205 L53,193 L46,182 L33,162 L24,146 L12,125 L8,120 L8,118 L6,119 L4,128 L-4,144 L-11,155 L-23,169 L-33,179 L-43,193 L-48,204 L-52,221 L-52,232 L-50,244 L-45,256 L-39,266 L-30,276 L-29,278 L-34,277 L-44,273 L-55,266 L-66,257 L-75,247 L-85,231 L-89,223 L-93,211 L-95,201 L-96,189 L-96,177 L-95,165 L-91,150 L-86,136 L-76,118 L-65,104 L-54,92 L-47,84 L-34,69 L-21,51 L-9,28 L-1,4 Z " fill="#FDFCFB" transform="translate(271,253)"/>
<path d="M0,0 L212,0 L216,4 L216,115 L130,115 L130,82 L144,81 L152,77 L158,69 L158,57 L155,51 L150,46 L142,43 L67,43 L59,48 L55,54 L54,57 L54,66 L58,75 L63,79 L68,81 L82,82 L82,115 L-4,115 L-4,4 Z " fill="#FDFCFB" transform="translate(171,59)"/>
</svg>
