<?xml version="1.0" encoding="UTF-8"?>
<!-- Generator: visioncortex VTracer 0.6.12 -->
<svg version="1.1" xmlns="http://www.w3.org/2000/svg" width="1254" height="1254">
<path d="M0,0 L1254,0 L1254,1254 L0,1254 Z " fill="#FDFDFD" transform="translate(0,0)"/>
<path d="M0,0 L340,0 L356,5 L367,11 L379,22 L386,32 L392,46 L393,51 L393,319 L407,319 L420,322 L430,326 L444,333 L455,342 L464,352 L472,366 L476,377 L480,395 L481,608 L485,621 L491,631 L501,640 L512,645 L519,647 L535,647 L546,645 L560,638 L567,631 L571,624 L575,616 L577,609 L577,380 L572,375 L556,365 L531,349 L504,331 L496,322 L490,309 L489,304 L489,221 L492,208 L496,198 L502,180 L501,173 L492,164 L484,157 L471,145 L458,133 L452,126 L450,121 L450,111 L455,101 L463,94 L469,93 L479,93 L487,97 L498,107 L506,114 L520,126 L532,137 L540,144 L550,153 L561,162 L575,175 L586,184 L600,197 L608,204 L617,217 L622,228 L625,238 L626,248 L626,302 L625,378 L624,604 L621,621 L615,638 L609,650 L602,659 L593,669 L581,678 L571,684 L553,690 L547,691 L512,691 L493,685 L481,679 L467,669 L458,660 L449,647 L442,632 L439,623 L437,611 L436,398 L433,386 L428,377 L421,370 L413,366 L403,363 L393,362 L393,404 L391,665 L391,714 L423,715 L430,718 L438,725 L442,733 L442,772 L438,778 L434,780 L-96,780 L-102,776 L-104,773 L-104,733 L-99,724 L-91,717 L-86,715 L-57,715 L-57,56 L-53,40 L-48,30 L-41,21 L-33,13 L-22,6 L-8,1 Z " fill="#029D51" transform="translate(397,229)"/>
<path d="M0,0 L295,0 L306,4 L314,11 L320,20 L321,23 L321,287 L317,297 L309,306 L299,311 L296,312 L-3,312 L-13,308 L-21,301 L-26,291 L-27,288 L-27,24 L-23,14 L-17,7 L-9,2 Z " fill="#FBFDFC" transform="translate(419,284)"/>
<path d="M0,0 L3,0 L3,20 L2,35 L-1,52 L-4,68 L-8,84 L-14,103 L-23,125 L-34,146 L-43,159 L-54,172 L-65,183 L-76,191 L-89,199 L-104,206 L-126,212 L-143,215 L-153,216 L-177,216 L-192,214 L-197,214 L-204,223 L-214,239 L-217,242 L-235,242 L-239,238 L-238,232 L-229,217 L-217,200 L-208,189 L-196,175 L-178,157 L-170,150 L-153,136 L-136,124 L-114,110 L-89,96 L-84,93 L-117,104 L-141,115 L-160,126 L-179,139 L-192,150 L-200,157 L-210,166 L-218,174 L-227,185 L-230,186 L-231,184 L-231,146 L-226,125 L-218,107 L-212,97 L-203,85 L-190,72 L-176,62 L-159,53 L-147,49 L-138,46 L-120,41 L-89,34 L-68,29 L-44,21 L-35,17 L-28,14 L-3,2 Z " fill="#039E52" transform="translate(686,325)"/>
<path d="M0,0 L5,1 L22,17 L39,33 L47,41 L49,46 L49,80 L47,82 L42,81 L23,69 L6,58 L0,51 L-1,49 L-1,1 Z " fill="#F6FBF8" transform="translate(919,478)"/>
</svg>
